<svg width="150" height="150" viewBox="0 0 150 150" fill="none" xmlns="http://www.w3.org/2000/svg">
<g filter="url(#filter0_d_10_113)">
<rect x="15" y="11" width="120" height="120" rx="15" fill="white"/>
</g>
<path d="M91.1484 79.9375C91.4922 79.9688 91.7188 80.0391 91.8281 80.1484C91.9375 80.2422 91.9922 80.4609 91.9922 80.8047C91.9922 81.0391 91.9141 81.2969 91.7578 81.5781C91.6172 81.8594 91.4297 82 91.1953 82H79.4531C79.2188 82 79.0234 81.8594 78.8672 81.5781C78.7266 81.2969 78.6562 81.0391 78.6562 80.8047C78.6562 80.5391 78.7109 80.3359 78.8203 80.1953C78.9297 80.0547 79.1328 79.9688 79.4297 79.9375L80.3906 79.8906C81.1875 79.875 81.7578 79.8281 82.1016 79.75C82.4609 79.6719 82.6406 79.5 82.6406 79.2344C82.6406 79.125 82.6172 79.0156 82.5703 78.9062L79.7344 70.4219H68.4844L65.625 78.9062C65.5938 78.9844 65.5781 79.0781 65.5781 79.1875C65.5781 79.4688 65.75 79.6484 66.0938 79.7266C66.4375 79.8047 67.0234 79.8594 67.8516 79.8906C68.0859 79.8906 68.4688 79.9062 69 79.9375C69.2969 79.9688 69.5 80.0547 69.6094 80.1953C69.7188 80.3359 69.7734 80.5391 69.7734 80.8047C69.7734 81.0391 69.6953 81.2969 69.5391 81.5781C69.3984 81.8594 69.2109 82 68.9766 82H59.0625C58.8125 82 58.6172 81.8828 58.4766 81.6484C58.3359 81.4141 58.2656 81.1328 58.2656 80.8047C58.2656 80.4609 58.3203 80.2422 58.4297 80.1484C58.5391 80.0391 58.7656 79.9688 59.1094 79.9375C59.25 79.9219 59.4609 79.9141 59.7422 79.9141C60.2422 79.8984 60.6562 79.8594 60.9844 79.7969C61.3125 79.7344 61.6328 79.5781 61.9453 79.3281C62.2578 79.0625 62.5078 78.6641 62.6953 78.1328L73.4297 48.2266H77.1797L87.6094 78.1328C87.7969 78.6641 88.0391 79.0547 88.3359 79.3047C88.6484 79.5547 88.9609 79.7188 89.2734 79.7969C89.6016 79.8594 90.0156 79.8984 90.5156 79.9141C90.8125 79.9141 91.0234 79.9219 91.1484 79.9375ZM74.3438 54.1797L69.2109 68.4062H79.0781L74.3438 54.1797Z" fill="#0000BA"/>
<rect x="40" y="88" width="70" height="3" fill="#0000BA"/>
<defs>
<filter id="filter0_d_10_113" x="0" y="0" width="150" height="150" filterUnits="userSpaceOnUse" color-interpolation-filters="sRGB">
<feFlood flood-opacity="0" result="BackgroundImageFix"/>
<feColorMatrix in="SourceAlpha" type="matrix" values="0 0 0 0 0 0 0 0 0 0 0 0 0 0 0 0 0 0 127 0" result="hardAlpha"/>
<feOffset dy="4"/>
<feGaussianBlur stdDeviation="7.5"/>
<feComposite in2="hardAlpha" operator="out"/>
<feColorMatrix type="matrix" values="0 0 0 0 0 0 0 0 0 0 0 0 0 0 0 0 0 0 0.25 0"/>
<feBlend mode="normal" in2="BackgroundImageFix" result="effect1_dropShadow_10_113"/>
<feBlend mode="normal" in="SourceGraphic" in2="effect1_dropShadow_10_113" result="shape"/>
</filter>
</defs>
</svg>
