<svg width="437" height="248" viewBox="0 0 437 248" fill="none" xmlns="http://www.w3.org/2000/svg">
<g filter="url(#filter0_d_10_114)">
<rect x="15" y="11" width="120" height="120" rx="15" fill="white"/>
</g>
<rect x="53" y="51" width="43" height="43" rx="3" stroke="#0000BA" stroke-width="4"/>
<path d="M63.5 64L77 80L96.5 31" stroke="#0000BA" stroke-width="5"/>
<g filter="url(#filter1_d_10_114)">
<rect x="159" y="73" width="120" height="120" rx="15" fill="white"/>
</g>
<circle cx="219" cy="133" r="29.5" stroke="#0000BA" stroke-width="5"/>
<circle cx="218.5" cy="132.5" r="18.5" fill="#0000BA"/>
<g filter="url(#filter2_d_10_114)">
<rect x="302" y="109" width="120" height="120" rx="15" fill="white"/>
</g>
<path d="M378.148 177.938C378.492 177.969 378.719 178.039 378.828 178.148C378.938 178.242 378.992 178.461 378.992 178.805C378.992 179.039 378.914 179.297 378.758 179.578C378.617 179.859 378.43 180 378.195 180H366.453C366.219 180 366.023 179.859 365.867 179.578C365.727 179.297 365.656 179.039 365.656 178.805C365.656 178.539 365.711 178.336 365.82 178.195C365.93 178.055 366.133 177.969 366.43 177.938L367.391 177.891C368.188 177.875 368.758 177.828 369.102 177.75C369.461 177.672 369.641 177.5 369.641 177.234C369.641 177.125 369.617 177.016 369.57 176.906L366.734 168.422H355.484L352.625 176.906C352.594 176.984 352.578 177.078 352.578 177.188C352.578 177.469 352.75 177.648 353.094 177.727C353.438 177.805 354.023 177.859 354.852 177.891C355.086 177.891 355.469 177.906 356 177.938C356.297 177.969 356.5 178.055 356.609 178.195C356.719 178.336 356.773 178.539 356.773 178.805C356.773 179.039 356.695 179.297 356.539 179.578C356.398 179.859 356.211 180 355.977 180H346.062C345.812 180 345.617 179.883 345.477 179.648C345.336 179.414 345.266 179.133 345.266 178.805C345.266 178.461 345.32 178.242 345.43 178.148C345.539 178.039 345.766 177.969 346.109 177.938C346.25 177.922 346.461 177.914 346.742 177.914C347.242 177.898 347.656 177.859 347.984 177.797C348.312 177.734 348.633 177.578 348.945 177.328C349.258 177.062 349.508 176.664 349.695 176.133L360.43 146.227H364.18L374.609 176.133C374.797 176.664 375.039 177.055 375.336 177.305C375.648 177.555 375.961 177.719 376.273 177.797C376.602 177.859 377.016 177.898 377.516 177.914C377.812 177.914 378.023 177.922 378.148 177.938ZM361.344 152.18L356.211 166.406H366.078L361.344 152.18Z" fill="#0000BA"/>
<rect x="327" y="186" width="70" height="3" fill="#0000BA"/>
<defs>
<filter id="filter0_d_10_114" x="0" y="0" width="150" height="150" filterUnits="userSpaceOnUse" color-interpolation-filters="sRGB">
<feFlood flood-opacity="0" result="BackgroundImageFix"/>
<feColorMatrix in="SourceAlpha" type="matrix" values="0 0 0 0 0 0 0 0 0 0 0 0 0 0 0 0 0 0 127 0" result="hardAlpha"/>
<feOffset dy="4"/>
<feGaussianBlur stdDeviation="7.5"/>
<feComposite in2="hardAlpha" operator="out"/>
<feColorMatrix type="matrix" values="0 0 0 0 0 0 0 0 0 0 0 0 0 0 0 0 0 0 0.25 0"/>
<feBlend mode="normal" in2="BackgroundImageFix" result="effect1_dropShadow_10_114"/>
<feBlend mode="normal" in="SourceGraphic" in2="effect1_dropShadow_10_114" result="shape"/>
</filter>
<filter id="filter1_d_10_114" x="144" y="62" width="150" height="150" filterUnits="userSpaceOnUse" color-interpolation-filters="sRGB">
<feFlood flood-opacity="0" result="BackgroundImageFix"/>
<feColorMatrix in="SourceAlpha" type="matrix" values="0 0 0 0 0 0 0 0 0 0 0 0 0 0 0 0 0 0 127 0" result="hardAlpha"/>
<feOffset dy="4"/>
<feGaussianBlur stdDeviation="7.5"/>
<feComposite in2="hardAlpha" operator="out"/>
<feColorMatrix type="matrix" values="0 0 0 0 0 0 0 0 0 0 0 0 0 0 0 0 0 0 0.25 0"/>
<feBlend mode="normal" in2="BackgroundImageFix" result="effect1_dropShadow_10_114"/>
<feBlend mode="normal" in="SourceGraphic" in2="effect1_dropShadow_10_114" result="shape"/>
</filter>
<filter id="filter2_d_10_114" x="287" y="98" width="150" height="150" filterUnits="userSpaceOnUse" color-interpolation-filters="sRGB">
<feFlood flood-opacity="0" result="BackgroundImageFix"/>
<feColorMatrix in="SourceAlpha" type="matrix" values="0 0 0 0 0 0 0 0 0 0 0 0 0 0 0 0 0 0 127 0" result="hardAlpha"/>
<feOffset dy="4"/>
<feGaussianBlur stdDeviation="7.5"/>
<feComposite in2="hardAlpha" operator="out"/>
<feColorMatrix type="matrix" values="0 0 0 0 0 0 0 0 0 0 0 0 0 0 0 0 0 0 0.25 0"/>
<feBlend mode="normal" in2="BackgroundImageFix" result="effect1_dropShadow_10_114"/>
<feBlend mode="normal" in="SourceGraphic" in2="effect1_dropShadow_10_114" result="shape"/>
</filter>
</defs>
</svg>
