<svg width="286" height="237" viewBox="0 0 286 237" fill="none" xmlns="http://www.w3.org/2000/svg">
<path d="M5 5V0.5H0.5V5H5ZM53.9362 5H58.4362V0.5H53.9362V5ZM53.9362 53.9224V58.4224H58.4362V53.9224H53.9362ZM5 53.9224H0.5V58.4224H5V53.9224ZM232.064 5V0.5H227.564V5H232.064ZM281 5H285.5V0.5H281V5ZM281 53.9224V58.4224H285.5V53.9224H281ZM232.064 53.9224H227.564V58.4224H232.064V53.9224ZM116.574 183.078V178.578H112.074V183.078H116.574ZM165.511 183.078H170.011V178.578H165.511V183.078ZM165.511 232V236.5H170.011V232H165.511ZM116.574 232H112.074V236.5H116.574V232ZM42.1915 28.4828V23.9828H34.4681L38.2767 30.7018L42.1915 28.4828ZM142.021 204.603L138.106 206.822L141.946 213.597L145.899 206.887L142.021 204.603ZM245.766 28.4828L249.643 30.7667L253.639 23.9828H245.766V28.4828ZM5 9.5H53.9362V0.5H5V9.5ZM49.4362 5V53.9224H58.4362V5H49.4362ZM53.9362 49.4224H5V58.4224H53.9362V49.4224ZM9.5 53.9224V5H0.5V53.9224H9.5ZM232.064 9.5H281V0.5H232.064V9.5ZM276.5 5V53.9224H285.5V5H276.5ZM281 49.4224H232.064V58.4224H281V49.4224ZM236.564 53.9224V5H227.564V53.9224H236.564ZM116.574 187.578H165.511V178.578H116.574V187.578ZM161.011 183.078V232H170.011V183.078H161.011ZM165.511 227.5H116.574V236.5H165.511V227.5ZM121.074 232V183.078H112.074V232H121.074ZM38.2767 30.7018L138.106 206.822L145.936 202.384L46.1063 26.2637L38.2767 30.7018ZM145.899 206.887L249.643 30.7667L241.889 26.1988L138.144 202.319L145.899 206.887ZM245.766 23.9828H42.1915V32.9828H245.766V23.9828Z" fill="#0000BA"/>
</svg>
