<svg width="554" height="291" viewBox="0 0 554 291" fill="none" xmlns="http://www.w3.org/2000/svg">
<g filter="url(#filter0_d_18_2)">
<rect x="15" y="11" width="315" height="120" rx="15" fill="white"/>
</g>
<path d="M114.781 70.4648L111.891 69.7227L113.316 55.5625H127.906V58.9023H116.383L115.523 66.6367C116.044 66.3372 116.702 66.0573 117.496 65.7969C118.303 65.5365 119.228 65.4062 120.27 65.4062C121.585 65.4062 122.763 65.6341 123.805 66.0898C124.846 66.5326 125.732 67.1706 126.461 68.0039C127.203 68.8372 127.77 69.8398 128.16 71.0117C128.551 72.1836 128.746 73.4922 128.746 74.9375C128.746 76.3047 128.557 77.5612 128.18 78.707C127.815 79.8529 127.262 80.8555 126.52 81.7148C125.777 82.5612 124.84 83.2188 123.707 83.6875C122.587 84.1562 121.266 84.3906 119.742 84.3906C118.596 84.3906 117.509 84.2344 116.48 83.9219C115.465 83.5964 114.553 83.1081 113.746 82.457C112.952 81.793 112.301 80.9727 111.793 79.9961C111.298 79.0065 110.986 77.8477 110.855 76.5195H114.293C114.449 77.5872 114.762 78.4857 115.23 79.2148C115.699 79.944 116.311 80.4974 117.066 80.875C117.835 81.2396 118.727 81.4219 119.742 81.4219C120.602 81.4219 121.363 81.2721 122.027 80.9727C122.691 80.6732 123.251 80.2435 123.707 79.6836C124.163 79.1237 124.508 78.4466 124.742 77.6523C124.99 76.8581 125.113 75.9661 125.113 74.9766C125.113 74.0781 124.99 73.2448 124.742 72.4766C124.495 71.7083 124.124 71.0378 123.629 70.4648C123.147 69.8919 122.555 69.4492 121.852 69.1367C121.148 68.8112 120.341 68.6484 119.43 68.6484C118.219 68.6484 117.301 68.8112 116.676 69.1367C116.064 69.4622 115.432 69.9049 114.781 70.4648ZM148.414 84H144.801V60.6406C144.801 59.1172 145.074 57.8346 145.621 56.793C146.181 55.7383 146.982 54.944 148.023 54.4102C149.065 53.8633 150.302 53.5898 151.734 53.5898C152.151 53.5898 152.568 53.6159 152.984 53.668C153.414 53.7201 153.831 53.7982 154.234 53.9023L154.039 56.8516C153.766 56.7865 153.453 56.7409 153.102 56.7148C152.763 56.6888 152.424 56.6758 152.086 56.6758C151.318 56.6758 150.654 56.832 150.094 57.1445C149.547 57.444 149.13 57.8867 148.844 58.4727C148.557 59.0586 148.414 59.7812 148.414 60.6406V84ZM152.906 62.8672V65.6406H141.461V62.8672H152.906ZM160.543 66.1875V84H156.93V62.8672H160.445L160.543 66.1875ZM167.145 62.75L167.125 66.1094C166.826 66.0443 166.539 66.0052 166.266 65.9922C166.005 65.9661 165.706 65.9531 165.367 65.9531C164.534 65.9531 163.798 66.0833 163.16 66.3438C162.522 66.6042 161.982 66.9688 161.539 67.4375C161.096 67.9062 160.745 68.4661 160.484 69.1172C160.237 69.7552 160.074 70.4583 159.996 71.2266L158.98 71.8125C158.98 70.5365 159.104 69.3385 159.352 68.2188C159.612 67.099 160.009 66.1094 160.543 65.25C161.077 64.3776 161.754 63.7005 162.574 63.2188C163.408 62.724 164.397 62.4766 165.543 62.4766C165.803 62.4766 166.103 62.5091 166.441 62.5742C166.78 62.6263 167.014 62.6849 167.145 62.75ZM169.137 73.668V73.2188C169.137 71.6953 169.358 70.2826 169.801 68.9805C170.243 67.6654 170.882 66.526 171.715 65.5625C172.548 64.5859 173.557 63.8307 174.742 63.2969C175.927 62.75 177.255 62.4766 178.727 62.4766C180.211 62.4766 181.546 62.75 182.73 63.2969C183.928 63.8307 184.944 64.5859 185.777 65.5625C186.624 66.526 187.268 67.6654 187.711 68.9805C188.154 70.2826 188.375 71.6953 188.375 73.2188V73.668C188.375 75.1914 188.154 76.6042 187.711 77.9062C187.268 79.2083 186.624 80.3477 185.777 81.3242C184.944 82.2878 183.935 83.043 182.75 83.5898C181.578 84.1237 180.25 84.3906 178.766 84.3906C177.281 84.3906 175.947 84.1237 174.762 83.5898C173.577 83.043 172.561 82.2878 171.715 81.3242C170.882 80.3477 170.243 79.2083 169.801 77.9062C169.358 76.6042 169.137 75.1914 169.137 73.668ZM172.75 73.2188V73.668C172.75 74.7227 172.874 75.7188 173.121 76.6562C173.368 77.5807 173.74 78.401 174.234 79.1172C174.742 79.8333 175.374 80.3997 176.129 80.8164C176.884 81.2201 177.763 81.4219 178.766 81.4219C179.755 81.4219 180.621 81.2201 181.363 80.8164C182.118 80.3997 182.743 79.8333 183.238 79.1172C183.733 78.401 184.104 77.5807 184.352 76.6562C184.612 75.7188 184.742 74.7227 184.742 73.668V73.2188C184.742 72.1771 184.612 71.194 184.352 70.2695C184.104 69.332 183.727 68.5052 183.219 67.7891C182.724 67.0599 182.099 66.487 181.344 66.0703C180.602 65.6536 179.729 65.4453 178.727 65.4453C177.737 65.4453 176.865 65.6536 176.109 66.0703C175.367 66.487 174.742 67.0599 174.234 67.7891C173.74 68.5052 173.368 69.332 173.121 70.2695C172.874 71.194 172.75 72.1771 172.75 73.2188ZM196.5 67.0664V84H192.867V62.8672H196.305L196.5 67.0664ZM195.758 72.6328L194.078 72.5742C194.091 71.1289 194.28 69.7943 194.645 68.5703C195.009 67.3333 195.549 66.2591 196.266 65.3477C196.982 64.4362 197.874 63.7331 198.941 63.2383C200.009 62.7305 201.246 62.4766 202.652 62.4766C203.642 62.4766 204.553 62.6198 205.387 62.9062C206.22 63.1797 206.943 63.6159 207.555 64.2148C208.167 64.8138 208.642 65.582 208.98 66.5195C209.319 67.457 209.488 68.5898 209.488 69.918V84H205.875V70.0938C205.875 68.987 205.686 68.1016 205.309 67.4375C204.944 66.7734 204.423 66.2917 203.746 65.9922C203.069 65.6797 202.275 65.5234 201.363 65.5234C200.296 65.5234 199.404 65.7122 198.688 66.0898C197.971 66.4674 197.398 66.9883 196.969 67.6523C196.539 68.3164 196.227 69.0781 196.031 69.9375C195.849 70.7839 195.758 71.6823 195.758 72.6328ZM209.449 70.6406L207.027 71.3828C207.04 70.224 207.229 69.1107 207.594 68.043C207.971 66.9753 208.512 66.0247 209.215 65.1914C209.931 64.3581 210.81 63.7005 211.852 63.2188C212.893 62.724 214.085 62.4766 215.426 62.4766C216.559 62.4766 217.561 62.6263 218.434 62.9258C219.319 63.2253 220.061 63.6875 220.66 64.3125C221.272 64.9245 221.734 65.7122 222.047 66.6758C222.359 67.6393 222.516 68.7852 222.516 70.1133V84H218.883V70.0742C218.883 68.8893 218.694 67.9714 218.316 67.3203C217.952 66.6562 217.431 66.194 216.754 65.9336C216.09 65.6602 215.296 65.5234 214.371 65.5234C213.577 65.5234 212.874 65.6602 212.262 65.9336C211.65 66.207 211.135 66.5846 210.719 67.0664C210.302 67.5352 209.983 68.0755 209.762 68.6875C209.553 69.2995 209.449 69.9505 209.449 70.6406ZM249.391 55.4062V84H245.777V59.918L238.492 62.5742V59.3125L248.824 55.4062H249.391ZM277.867 67.5156V71.8516C277.867 74.1823 277.659 76.1484 277.242 77.75C276.826 79.3516 276.227 80.6406 275.445 81.6172C274.664 82.5938 273.72 83.3034 272.613 83.7461C271.52 84.1758 270.283 84.3906 268.902 84.3906C267.809 84.3906 266.799 84.2539 265.875 83.9805C264.951 83.707 264.117 83.2708 263.375 82.6719C262.646 82.0599 262.021 81.2656 261.5 80.2891C260.979 79.3125 260.582 78.1276 260.309 76.7344C260.035 75.3411 259.898 73.7135 259.898 71.8516V67.5156C259.898 65.1849 260.107 63.2318 260.523 61.6562C260.953 60.0807 261.559 58.8177 262.34 57.8672C263.121 56.9036 264.059 56.2135 265.152 55.7969C266.259 55.3802 267.496 55.1719 268.863 55.1719C269.97 55.1719 270.986 55.3086 271.91 55.582C272.848 55.8424 273.681 56.2656 274.41 56.8516C275.139 57.4245 275.758 58.1927 276.266 59.1562C276.786 60.1068 277.184 61.2721 277.457 62.6523C277.73 64.0326 277.867 65.6536 277.867 67.5156ZM274.234 72.4375V66.9102C274.234 65.6341 274.156 64.5143 274 63.5508C273.857 62.5742 273.642 61.7409 273.355 61.0508C273.069 60.3607 272.704 59.8008 272.262 59.3711C271.832 58.9414 271.331 58.6289 270.758 58.4336C270.198 58.2253 269.566 58.1211 268.863 58.1211C268.004 58.1211 267.242 58.2839 266.578 58.6094C265.914 58.9219 265.354 59.4232 264.898 60.1133C264.456 60.8034 264.117 61.7083 263.883 62.8281C263.648 63.9479 263.531 65.3086 263.531 66.9102V72.4375C263.531 73.7135 263.603 74.8398 263.746 75.8164C263.902 76.793 264.13 77.6393 264.43 78.3555C264.729 79.0586 265.094 79.638 265.523 80.0938C265.953 80.5495 266.448 80.888 267.008 81.1094C267.581 81.3177 268.212 81.4219 268.902 81.4219C269.788 81.4219 270.562 81.2526 271.227 80.9141C271.891 80.5755 272.444 80.0482 272.887 79.332C273.342 78.6029 273.681 77.6719 273.902 76.5391C274.124 75.3932 274.234 74.026 274.234 72.4375Z" fill="black"/>
<circle cx="56.5" cy="70.5" r="20.5" fill="#229822"/>
<path d="M45.5 67L54.5 82L65.5 56.5" stroke="white" stroke-width="5"/>
<g filter="url(#filter1_d_18_2)">
<rect x="224" y="152" width="315" height="120" rx="15" fill="white"/>
</g>
<path d="M311.531 211.465L308.641 210.723L310.066 196.562H324.656V199.902H313.133L312.273 207.637C312.794 207.337 313.452 207.057 314.246 206.797C315.053 206.536 315.978 206.406 317.02 206.406C318.335 206.406 319.513 206.634 320.555 207.09C321.596 207.533 322.482 208.171 323.211 209.004C323.953 209.837 324.52 210.84 324.91 212.012C325.301 213.184 325.496 214.492 325.496 215.938C325.496 217.305 325.307 218.561 324.93 219.707C324.565 220.853 324.012 221.855 323.27 222.715C322.527 223.561 321.59 224.219 320.457 224.688C319.337 225.156 318.016 225.391 316.492 225.391C315.346 225.391 314.259 225.234 313.23 224.922C312.215 224.596 311.303 224.108 310.496 223.457C309.702 222.793 309.051 221.973 308.543 220.996C308.048 220.007 307.736 218.848 307.605 217.52H311.043C311.199 218.587 311.512 219.486 311.98 220.215C312.449 220.944 313.061 221.497 313.816 221.875C314.585 222.24 315.477 222.422 316.492 222.422C317.352 222.422 318.113 222.272 318.777 221.973C319.441 221.673 320.001 221.243 320.457 220.684C320.913 220.124 321.258 219.447 321.492 218.652C321.74 217.858 321.863 216.966 321.863 215.977C321.863 215.078 321.74 214.245 321.492 213.477C321.245 212.708 320.874 212.038 320.379 211.465C319.897 210.892 319.305 210.449 318.602 210.137C317.898 209.811 317.091 209.648 316.18 209.648C314.969 209.648 314.051 209.811 313.426 210.137C312.814 210.462 312.182 210.905 311.531 211.465ZM345.164 225H341.551V201.641C341.551 200.117 341.824 198.835 342.371 197.793C342.931 196.738 343.732 195.944 344.773 195.41C345.815 194.863 347.052 194.59 348.484 194.59C348.901 194.59 349.318 194.616 349.734 194.668C350.164 194.72 350.581 194.798 350.984 194.902L350.789 197.852C350.516 197.786 350.203 197.741 349.852 197.715C349.513 197.689 349.174 197.676 348.836 197.676C348.068 197.676 347.404 197.832 346.844 198.145C346.297 198.444 345.88 198.887 345.594 199.473C345.307 200.059 345.164 200.781 345.164 201.641V225ZM349.656 203.867V206.641H338.211V203.867H349.656ZM357.293 207.188V225H353.68V203.867H357.195L357.293 207.188ZM363.895 203.75L363.875 207.109C363.576 207.044 363.289 207.005 363.016 206.992C362.755 206.966 362.456 206.953 362.117 206.953C361.284 206.953 360.548 207.083 359.91 207.344C359.272 207.604 358.732 207.969 358.289 208.438C357.846 208.906 357.495 209.466 357.234 210.117C356.987 210.755 356.824 211.458 356.746 212.227L355.73 212.812C355.73 211.536 355.854 210.339 356.102 209.219C356.362 208.099 356.759 207.109 357.293 206.25C357.827 205.378 358.504 204.701 359.324 204.219C360.158 203.724 361.147 203.477 362.293 203.477C362.553 203.477 362.853 203.509 363.191 203.574C363.53 203.626 363.764 203.685 363.895 203.75ZM365.887 214.668V214.219C365.887 212.695 366.108 211.283 366.551 209.98C366.993 208.665 367.632 207.526 368.465 206.562C369.298 205.586 370.307 204.831 371.492 204.297C372.677 203.75 374.005 203.477 375.477 203.477C376.961 203.477 378.296 203.75 379.48 204.297C380.678 204.831 381.694 205.586 382.527 206.562C383.374 207.526 384.018 208.665 384.461 209.98C384.904 211.283 385.125 212.695 385.125 214.219V214.668C385.125 216.191 384.904 217.604 384.461 218.906C384.018 220.208 383.374 221.348 382.527 222.324C381.694 223.288 380.685 224.043 379.5 224.59C378.328 225.124 377 225.391 375.516 225.391C374.031 225.391 372.697 225.124 371.512 224.59C370.327 224.043 369.311 223.288 368.465 222.324C367.632 221.348 366.993 220.208 366.551 218.906C366.108 217.604 365.887 216.191 365.887 214.668ZM369.5 214.219V214.668C369.5 215.723 369.624 216.719 369.871 217.656C370.118 218.581 370.49 219.401 370.984 220.117C371.492 220.833 372.124 221.4 372.879 221.816C373.634 222.22 374.513 222.422 375.516 222.422C376.505 222.422 377.371 222.22 378.113 221.816C378.868 221.4 379.493 220.833 379.988 220.117C380.483 219.401 380.854 218.581 381.102 217.656C381.362 216.719 381.492 215.723 381.492 214.668V214.219C381.492 213.177 381.362 212.194 381.102 211.27C380.854 210.332 380.477 209.505 379.969 208.789C379.474 208.06 378.849 207.487 378.094 207.07C377.352 206.654 376.479 206.445 375.477 206.445C374.487 206.445 373.615 206.654 372.859 207.07C372.117 207.487 371.492 208.06 370.984 208.789C370.49 209.505 370.118 210.332 369.871 211.27C369.624 212.194 369.5 213.177 369.5 214.219ZM393.25 208.066V225H389.617V203.867H393.055L393.25 208.066ZM392.508 213.633L390.828 213.574C390.841 212.129 391.03 210.794 391.395 209.57C391.759 208.333 392.299 207.259 393.016 206.348C393.732 205.436 394.624 204.733 395.691 204.238C396.759 203.73 397.996 203.477 399.402 203.477C400.392 203.477 401.303 203.62 402.137 203.906C402.97 204.18 403.693 204.616 404.305 205.215C404.917 205.814 405.392 206.582 405.73 207.52C406.069 208.457 406.238 209.59 406.238 210.918V225H402.625V211.094C402.625 209.987 402.436 209.102 402.059 208.438C401.694 207.773 401.173 207.292 400.496 206.992C399.819 206.68 399.025 206.523 398.113 206.523C397.046 206.523 396.154 206.712 395.438 207.09C394.721 207.467 394.148 207.988 393.719 208.652C393.289 209.316 392.977 210.078 392.781 210.938C392.599 211.784 392.508 212.682 392.508 213.633ZM406.199 211.641L403.777 212.383C403.79 211.224 403.979 210.111 404.344 209.043C404.721 207.975 405.262 207.025 405.965 206.191C406.681 205.358 407.56 204.701 408.602 204.219C409.643 203.724 410.835 203.477 412.176 203.477C413.309 203.477 414.311 203.626 415.184 203.926C416.069 204.225 416.811 204.688 417.41 205.312C418.022 205.924 418.484 206.712 418.797 207.676C419.109 208.639 419.266 209.785 419.266 211.113V225H415.633V211.074C415.633 209.889 415.444 208.971 415.066 208.32C414.702 207.656 414.181 207.194 413.504 206.934C412.84 206.66 412.046 206.523 411.121 206.523C410.327 206.523 409.624 206.66 409.012 206.934C408.4 207.207 407.885 207.585 407.469 208.066C407.052 208.535 406.733 209.076 406.512 209.688C406.303 210.299 406.199 210.951 406.199 211.641ZM446.141 196.406V225H442.527V200.918L435.242 203.574V200.312L445.574 196.406H446.141ZM474.617 208.516V212.852C474.617 215.182 474.409 217.148 473.992 218.75C473.576 220.352 472.977 221.641 472.195 222.617C471.414 223.594 470.47 224.303 469.363 224.746C468.27 225.176 467.033 225.391 465.652 225.391C464.559 225.391 463.549 225.254 462.625 224.98C461.701 224.707 460.867 224.271 460.125 223.672C459.396 223.06 458.771 222.266 458.25 221.289C457.729 220.312 457.332 219.128 457.059 217.734C456.785 216.341 456.648 214.714 456.648 212.852V208.516C456.648 206.185 456.857 204.232 457.273 202.656C457.703 201.081 458.309 199.818 459.09 198.867C459.871 197.904 460.809 197.214 461.902 196.797C463.009 196.38 464.246 196.172 465.613 196.172C466.72 196.172 467.736 196.309 468.66 196.582C469.598 196.842 470.431 197.266 471.16 197.852C471.889 198.424 472.508 199.193 473.016 200.156C473.536 201.107 473.934 202.272 474.207 203.652C474.48 205.033 474.617 206.654 474.617 208.516ZM470.984 213.438V207.91C470.984 206.634 470.906 205.514 470.75 204.551C470.607 203.574 470.392 202.741 470.105 202.051C469.819 201.361 469.454 200.801 469.012 200.371C468.582 199.941 468.081 199.629 467.508 199.434C466.948 199.225 466.316 199.121 465.613 199.121C464.754 199.121 463.992 199.284 463.328 199.609C462.664 199.922 462.104 200.423 461.648 201.113C461.206 201.803 460.867 202.708 460.633 203.828C460.398 204.948 460.281 206.309 460.281 207.91V213.438C460.281 214.714 460.353 215.84 460.496 216.816C460.652 217.793 460.88 218.639 461.18 219.355C461.479 220.059 461.844 220.638 462.273 221.094C462.703 221.549 463.198 221.888 463.758 222.109C464.331 222.318 464.962 222.422 465.652 222.422C466.538 222.422 467.312 222.253 467.977 221.914C468.641 221.576 469.194 221.048 469.637 220.332C470.092 219.603 470.431 218.672 470.652 217.539C470.874 216.393 470.984 215.026 470.984 213.438ZM497.117 208.516V212.852C497.117 215.182 496.909 217.148 496.492 218.75C496.076 220.352 495.477 221.641 494.695 222.617C493.914 223.594 492.97 224.303 491.863 224.746C490.77 225.176 489.533 225.391 488.152 225.391C487.059 225.391 486.049 225.254 485.125 224.98C484.201 224.707 483.367 224.271 482.625 223.672C481.896 223.06 481.271 222.266 480.75 221.289C480.229 220.312 479.832 219.128 479.559 217.734C479.285 216.341 479.148 214.714 479.148 212.852V208.516C479.148 206.185 479.357 204.232 479.773 202.656C480.203 201.081 480.809 199.818 481.59 198.867C482.371 197.904 483.309 197.214 484.402 196.797C485.509 196.38 486.746 196.172 488.113 196.172C489.22 196.172 490.236 196.309 491.16 196.582C492.098 196.842 492.931 197.266 493.66 197.852C494.389 198.424 495.008 199.193 495.516 200.156C496.036 201.107 496.434 202.272 496.707 203.652C496.98 205.033 497.117 206.654 497.117 208.516ZM493.484 213.438V207.91C493.484 206.634 493.406 205.514 493.25 204.551C493.107 203.574 492.892 202.741 492.605 202.051C492.319 201.361 491.954 200.801 491.512 200.371C491.082 199.941 490.581 199.629 490.008 199.434C489.448 199.225 488.816 199.121 488.113 199.121C487.254 199.121 486.492 199.284 485.828 199.609C485.164 199.922 484.604 200.423 484.148 201.113C483.706 201.803 483.367 202.708 483.133 203.828C482.898 204.948 482.781 206.309 482.781 207.91V213.438C482.781 214.714 482.853 215.84 482.996 216.816C483.152 217.793 483.38 218.639 483.68 219.355C483.979 220.059 484.344 220.638 484.773 221.094C485.203 221.549 485.698 221.888 486.258 222.109C486.831 222.318 487.462 222.422 488.152 222.422C489.038 222.422 489.812 222.253 490.477 221.914C491.141 221.576 491.694 221.048 492.137 220.332C492.592 219.603 492.931 218.672 493.152 217.539C493.374 216.393 493.484 215.026 493.484 213.438Z" fill="black"/>
<circle cx="264.5" cy="211.5" r="20.5" fill="#FF3939"/>
<path d="M255 203.5L263.659 211.918M273 221L264 212.25M264 212.25L273 203.5L263.659 211.918M264 212.25L263.659 211.918M264 212.25L255 221" stroke="white" stroke-width="5"/>
<defs>
<filter id="filter0_d_18_2" x="0" y="0" width="345" height="150" filterUnits="userSpaceOnUse" color-interpolation-filters="sRGB">
<feFlood flood-opacity="0" result="BackgroundImageFix"/>
<feColorMatrix in="SourceAlpha" type="matrix" values="0 0 0 0 0 0 0 0 0 0 0 0 0 0 0 0 0 0 127 0" result="hardAlpha"/>
<feOffset dy="4"/>
<feGaussianBlur stdDeviation="7.5"/>
<feComposite in2="hardAlpha" operator="out"/>
<feColorMatrix type="matrix" values="0 0 0 0 0 0 0 0 0 0 0 0 0 0 0 0 0 0 0.25 0"/>
<feBlend mode="normal" in2="BackgroundImageFix" result="effect1_dropShadow_18_2"/>
<feBlend mode="normal" in="SourceGraphic" in2="effect1_dropShadow_18_2" result="shape"/>
</filter>
<filter id="filter1_d_18_2" x="209" y="141" width="345" height="150" filterUnits="userSpaceOnUse" color-interpolation-filters="sRGB">
<feFlood flood-opacity="0" result="BackgroundImageFix"/>
<feColorMatrix in="SourceAlpha" type="matrix" values="0 0 0 0 0 0 0 0 0 0 0 0 0 0 0 0 0 0 127 0" result="hardAlpha"/>
<feOffset dy="4"/>
<feGaussianBlur stdDeviation="7.5"/>
<feComposite in2="hardAlpha" operator="out"/>
<feColorMatrix type="matrix" values="0 0 0 0 0 0 0 0 0 0 0 0 0 0 0 0 0 0 0.25 0"/>
<feBlend mode="normal" in2="BackgroundImageFix" result="effect1_dropShadow_18_2"/>
<feBlend mode="normal" in="SourceGraphic" in2="effect1_dropShadow_18_2" result="shape"/>
</filter>
</defs>
</svg>
