<svg width="94" height="37" viewBox="0 0 94 37" fill="none" xmlns="http://www.w3.org/2000/svg">
<path d="M26.8974 28H24.6174V16L24.3174 13L26.2974 12.85L26.8974 16.45C27.4974 15.21 28.2574 14.27 29.1774 13.63C30.0974 12.99 31.0974 12.67 32.1774 12.67L32.3274 14.95C28.8074 15.23 26.9974 17.92 26.8974 23.02V28ZM39.8443 28.42C38.1243 28.42 36.7143 27.77 35.6143 26.47C34.5143 25.17 33.9643 23.3 33.9643 20.86C33.9643 18.4 34.6543 16.41 36.0343 14.89C37.4343 13.35 39.1643 12.58 41.2243 12.58C43.3043 12.58 45.1743 13.16 46.8343 14.32V25L47.1343 28L45.1543 28.15L44.6443 25.45C43.5243 27.43 41.9243 28.42 39.8443 28.42ZM36.2443 20.8C36.2443 22.6 36.6243 23.98 37.3843 24.94C38.1443 25.9 39.1143 26.38 40.2943 26.38C41.4943 26.38 42.5043 25.79 43.3243 24.61C44.1443 23.41 44.5543 21.72 44.5543 19.54V15.37C43.5543 14.87 42.4843 14.62 41.3443 14.62C39.8643 14.62 38.6443 15.2 37.6843 16.36C36.7243 17.5 36.2443 18.98 36.2443 20.8ZM56.7779 28.42C55.0579 28.42 53.6479 27.77 52.5479 26.47C51.4479 25.17 50.8979 23.3 50.8979 20.86C50.8979 18.4 51.5879 16.41 52.9679 14.89C54.3679 13.35 56.1379 12.58 58.2779 12.58C59.3379 12.58 60.4079 12.77 61.4879 13.15V7H63.7679V25L64.0679 28L62.0879 28.15L61.5779 25.45C60.4579 27.43 58.8579 28.42 56.7779 28.42ZM53.1779 20.8C53.1779 22.6 53.5579 23.98 54.3179 24.94C55.0779 25.9 56.0479 26.38 57.2279 26.38C58.4279 26.38 59.4379 25.79 60.2579 24.61C61.0779 23.41 61.4879 21.72 61.4879 19.54V15.37C60.4879 14.87 59.4179 14.62 58.2779 14.62C56.7979 14.62 55.5779 15.2 54.6179 16.36C53.6579 17.5 53.1779 18.98 53.1779 20.8ZM74.0414 28.42C72.2414 28.42 70.7514 27.79 69.5714 26.53C68.4114 25.27 67.8314 23.42 67.8314 20.98C67.8314 18.54 68.5214 16.53 69.9014 14.95C71.2814 13.37 73.0714 12.58 75.2714 12.58C76.6714 12.58 77.8014 13.01 78.6614 13.87C79.5214 14.71 79.9514 15.77 79.9514 17.05C79.9514 18.31 79.2914 19.47 77.9714 20.53C76.6714 21.59 74.7714 22.12 72.2714 22.12C71.6114 22.12 70.9114 22.09 70.1714 22.03C70.3114 23.45 70.7414 24.53 71.4614 25.27C72.2014 26.01 73.0914 26.38 74.1314 26.38C75.8714 26.38 77.3214 25.84 78.4814 24.76L79.5614 26.23C78.0414 27.69 76.2014 28.42 74.0414 28.42ZM75.1814 14.62C73.8014 14.62 72.6514 15.11 71.7314 16.09C70.8314 17.07 70.3014 18.37 70.1414 19.99C70.8014 20.09 71.5314 20.14 72.3314 20.14C74.0514 20.14 75.3714 19.82 76.2914 19.18C77.2114 18.54 77.6714 17.8 77.6714 16.96C77.6714 16.34 77.4414 15.8 76.9814 15.34C76.5414 14.86 75.9414 14.62 75.1814 14.62ZM87.4927 26.35C88.3727 26.35 89.1127 26.14 89.7127 25.72C90.3127 25.3 90.6127 24.78 90.6127 24.16C90.6127 23.52 90.4427 23.02 90.1027 22.66C89.7627 22.28 89.3927 22.01 88.9927 21.85C88.6127 21.69 88.0627 21.51 87.3427 21.31C86.6227 21.09 86.0727 20.91 85.6927 20.77C85.3127 20.61 84.8627 20.37 84.3427 20.05C83.3627 19.45 82.8727 18.43 82.8727 16.99C82.8727 15.53 83.3627 14.43 84.3427 13.69C85.3227 12.95 86.4727 12.58 87.7927 12.58C88.6127 12.58 89.4327 12.69 90.2527 12.91C91.0927 13.13 91.7227 13.36 92.1427 13.6L91.3027 15.43C90.3427 14.91 89.1727 14.65 87.7927 14.65C87.0927 14.65 86.4727 14.84 85.9327 15.22C85.4127 15.58 85.1527 16.05 85.1527 16.63C85.1527 17.19 85.3127 17.63 85.6327 17.95C85.9527 18.27 86.2827 18.5 86.6227 18.64C86.9627 18.78 87.4827 18.95 88.1827 19.15C88.8827 19.35 89.4427 19.54 89.8627 19.72C90.3027 19.88 90.7927 20.14 91.3327 20.5C92.3727 21.2 92.8927 22.31 92.8927 23.83C92.8927 25.33 92.3727 26.47 91.3327 27.25C90.3127 28.03 89.0327 28.42 87.4927 28.42C85.4127 28.42 83.6527 27.75 82.2127 26.41L83.4427 24.76C84.5427 25.82 85.8927 26.35 87.4927 26.35Z" fill="#0000BA"/>
<path d="M12.4668 28.48C10.5068 28.48 8.85684 27.99 7.51684 27.01C6.19684 26.03 5.24684 24.76 4.66684 23.2C4.08684 21.64 3.79684 19.84 3.79684 17.8C3.79684 15.76 4.08684 13.96 4.66684 12.4C5.24684 10.84 6.19684 9.57 7.51684 8.59C8.85684 7.61 10.6068 7.12 12.7668 7.12C14.9468 7.12 16.8768 7.58 18.5568 8.5L17.7168 10.54C16.1168 9.72 14.3068 9.31 12.2868 9.31C10.2868 9.31 8.76684 10.1 7.72684 11.68C6.70684 13.24 6.19684 15.29 6.19684 17.83C6.19684 20.35 6.70684 22.39 7.72684 23.95C8.74684 25.51 10.2468 26.29 12.2268 26.29C14.2268 26.29 15.8568 25.94 17.1168 25.24V18.88H12.5268V16.72H19.3968V26.41C17.1968 27.79 14.8868 28.48 12.4668 28.48Z" fill="#0000BA"/>
<path d="M14.0735 21L16.8292 22.1327L17.9706 24.8672L16.8292 27.6017L14.0735 28.7343L11.3179 27.6017L10.1765 24.8672L11.3179 22.1327L14.0735 21Z" fill="#0000BA"/>
<path d="M9 35.5988L10.9809 28.7464C11.563 28.6593 11.424 29.47 11.8497 29.8623C12.2754 30.2547 12.8575 29.627 13.1442 29.627C13.3736 29.627 13.7032 30.0803 13.8393 30.307C13.9725 30.3564 14.2963 30.3366 14.5256 29.8623C14.755 29.3881 15.1425 29.5078 15.3076 29.627C15.6638 29.8653 16.3849 30.1675 16.4196 29.47C16.4544 28.7726 16.8396 28.697 17.0278 28.7464C17.6562 30.9376 18.9305 35.3756 19 35.5988C18.9583 35.822 18.7915 35.8778 18.7133 35.8778L16.9235 35.3198C16.5818 35.6976 15.8671 36.4915 15.742 36.645C15.6586 36.8263 15.4176 36.7205 15.3076 36.645L13.9783 32.2337C13.5873 33.6169 12.788 36.4357 12.7185 36.645C12.649 36.8542 12.3768 36.7322 12.2493 36.645L11.0765 35.3198C10.532 35.5 9.4066 35.8638 9.26064 35.8778C9.11468 35.8917 9.02606 35.6976 9 35.5988Z" fill="#0000BA"/>
<ellipse cx="13.9998" cy="24.582" rx="2.14286" ry="2.14916" fill="white"/>
</svg>
