<svg width="36" height="36" viewBox="0 0 36 36" fill="none" xmlns="http://www.w3.org/2000/svg">
<path d="M18 3C9.7155 3 3 9.7155 3 18C3 24.6653 7.35075 30.3082 13.365 32.262H22.635C28.6493 30.3082 33 24.6653 33 18C33 9.7155 26.2845 3 18 3Z" fill="url(#paint0_linear_106_53)"/>
<path opacity="0.05" d="M22.5075 31.497L22.5 27.1485C22.5 26.4443 22.335 25.7565 22.0185 25.1333C26.2493 24.2835 28.308 21.7823 28.308 17.5005C28.308 15.8093 27.8093 14.316 26.826 13.0605C26.901 12.8228 26.9565 12.5768 26.991 12.3248C27.132 11.298 26.9738 10.6268 26.8463 10.0868L26.826 9.99975C26.6865 9.40275 26.5193 8.97675 26.5125 8.95875L26.4293 8.74725L26.346 8.53575L26.1195 8.51175L25.8923 8.48775C25.8923 8.48775 25.743 8.472 25.5165 8.472C25.2023 8.472 24.7365 8.5035 24.2963 8.65275L24.1493 8.70225C23.5943 8.889 23.07 9.066 22.3365 9.504C22.122 9.63225 21.8873 9.7785 21.636 9.942C20.5005 9.66075 19.2788 9.5175 18 9.5175C16.7085 9.5175 15.4763 9.6615 14.3333 9.94575C14.079 9.78075 13.8428 9.633 13.6268 9.504C12.8933 9.066 12.369 8.88975 11.814 8.70225L11.667 8.65275C11.2283 8.5035 10.7618 8.472 10.4475 8.472C10.221 8.472 10.0718 8.48775 10.0718 8.48775L9.84527 8.51175L9.62027 8.535L9.53627 8.74575L9.45152 8.958C9.44402 8.9775 9.27677 9.4035 9.13727 10.0013L9.11702 10.0875C8.98952 10.6268 8.83127 11.2988 8.97227 12.3248C9.00827 12.5843 9.06602 12.8385 9.14477 13.083C8.18102 14.3325 7.69277 15.8175 7.69277 17.5005C7.69277 21.7718 9.75376 24.2715 13.9905 25.128C13.845 25.419 13.7318 25.7265 13.6515 26.046C13.5038 26.0963 13.368 26.13 13.248 26.1488C13.0695 26.1758 12.8828 26.1892 12.6938 26.1892C12.1793 26.1892 11.775 26.0888 11.6175 25.995C11.3828 25.8555 10.9635 25.4497 10.557 24.8565C10.2098 24.3502 9.66827 23.688 9.06302 23.4113C8.53952 23.172 7.98527 23.0347 7.54127 23.0347C7.43777 23.0347 7.34252 23.0422 7.25927 23.0557C6.87152 23.1172 6.54752 23.3303 6.37127 23.6408C6.21902 23.9085 6.19501 24.2205 6.30526 24.4965C6.46951 24.9075 6.94352 25.2353 7.31252 25.4378C7.49402 25.5375 7.88627 25.902 8.11502 26.2695C8.28677 26.5455 8.36627 26.742 8.47652 27.0135C8.54177 27.1748 8.61377 27.3503 8.71127 27.5625C9.06377 28.329 10.164 29.0055 10.2885 29.0797C10.893 29.442 11.9093 29.5583 12.6563 29.592L12.7485 29.5943H12.7493C12.9293 29.5943 13.1768 29.577 13.5023 29.541V31.5008C13.5038 31.8975 13.0995 31.9875 12.5648 31.9793L12.975 32.1173C14.5463 32.679 16.2338 33 18 33C19.7663 33 21.4538 32.679 23.0273 32.118L23.5545 31.9215C23.0213 31.9035 22.512 31.8165 22.5075 31.497Z" fill="black"/>
<path opacity="0.07" d="M23.0857 32.0978C22.7812 32.133 22.125 32.016 22.125 31.5015V27.1485C22.125 26.328 21.879 25.5353 21.423 24.8595C25.8592 24.1418 27.9322 21.7898 27.9322 17.5005C27.9322 15.8228 27.4177 14.355 26.403 13.134C26.5057 12.8602 26.5777 12.5715 26.619 12.2738C26.7502 11.3168 26.607 10.7093 26.481 10.173L26.4607 10.086C26.3272 9.51525 26.1697 9.11325 26.163 9.09675L26.0797 8.88525L25.8525 8.86125C25.8525 8.86125 25.719 8.847 25.5157 8.847C25.23 8.847 24.8077 8.87475 24.4162 9.00825L24.2692 9.05775C23.7337 9.2385 23.2275 9.40875 22.5285 9.82575C22.2795 9.97425 22.002 10.149 21.7027 10.3463C20.553 10.0455 19.3087 9.8925 18 9.8925C16.6785 9.8925 15.4237 10.0463 14.2657 10.35C13.9635 10.1513 13.6845 9.97575 13.434 9.82575C12.735 9.40875 12.2287 9.23775 11.6932 9.05775L11.5462 9.00825C11.1555 8.8755 10.7325 8.847 10.4467 8.847C10.2435 8.847 10.11 8.86125 10.11 8.86125L9.88349 8.88525L9.79874 9.0975C9.79199 9.114 9.63449 9.516 9.50099 10.0868L9.48074 10.1738C9.35399 10.71 9.21074 11.3168 9.34274 12.2738C9.38474 12.579 9.45974 12.8745 9.56624 13.1543C8.57099 14.3693 8.06699 15.8295 8.06699 17.5005C8.06699 21.7778 10.1415 24.129 14.5815 24.855C14.2852 25.2975 14.0782 25.7963 13.9717 26.328C13.7242 26.4255 13.5 26.49 13.3035 26.52C13.1062 26.55 12.9007 26.565 12.693 26.565C12.1755 26.565 11.6782 26.4683 11.4255 26.3183C11.0955 26.1225 10.6327 25.6327 10.2465 25.0695C9.98399 24.687 9.46124 24.0068 8.90549 23.7533C8.42924 23.5358 7.93199 23.4105 7.53974 23.4105C7.45724 23.4105 7.38224 23.4165 7.31624 23.427C7.04174 23.4705 6.81524 23.616 6.69524 23.8275C6.59924 23.9955 6.58349 24.1898 6.65099 24.3585C6.78524 24.6945 7.28249 24.996 7.49024 25.11C7.74149 25.248 8.17949 25.668 8.43074 26.073C8.61899 26.376 8.70824 26.5958 8.82149 26.8733C8.88524 27.03 8.95499 27.201 9.04949 27.4072C9.29774 27.9465 10.0642 28.5113 10.4782 28.7595C11.0437 29.0985 12.0937 29.193 12.6697 29.2185L12.753 29.22C12.9772 29.22 13.353 29.1863 13.8742 29.1188V31.5015C13.8742 32.0857 13.131 32.109 12.9487 32.109C12.9255 32.109 13.326 32.247 13.326 32.247C14.7982 32.73 16.3665 33 18 33C19.6335 33 21.2017 32.73 22.6732 32.2478C22.6732 32.2478 23.109 32.0948 23.0857 32.0978Z" fill="black"/>
<path d="M27.558 17.5005C27.558 15.768 26.9715 14.331 25.9702 13.2045C26.079 12.9607 26.1922 12.6337 26.2485 12.2227C26.3775 11.2852 26.2252 10.7227 26.0962 10.1722C25.9672 9.62175 25.815 9.23475 25.815 9.23475C25.815 9.23475 25.1235 9.16425 24.5377 9.36375C23.952 9.56325 23.448 9.7155 22.7212 10.149C22.3815 10.3515 22.0395 10.5735 21.7687 10.7535C20.6115 10.4325 19.3387 10.2675 18 10.2675C16.6492 10.2675 15.3652 10.4332 14.1997 10.7565C13.9282 10.5757 13.584 10.3522 13.242 10.1482C12.5152 9.71475 12.0112 9.5625 11.4255 9.363C10.8397 9.1635 10.1482 9.234 10.1482 9.234C10.1482 9.234 9.99597 9.621 9.86697 10.1715C9.73797 10.722 9.58572 11.2845 9.71472 12.222C9.77247 12.6435 9.88947 12.9765 10.0012 13.2217C9.01872 14.3415 8.44272 15.7695 8.44272 17.4997C8.44272 21.987 10.8667 24.0352 15.2835 24.576C14.7682 25.1205 14.4225 25.818 14.3062 26.5942C14.016 26.7217 13.6815 26.8417 13.3597 26.8897C12.5317 27.015 11.6565 26.8897 11.235 26.64C10.8135 26.3902 10.3132 25.8277 9.93822 25.2802C9.62172 24.8182 9.16497 24.282 8.75097 24.093C8.20422 23.8432 7.67247 23.7495 7.37622 23.796C7.07922 23.8432 6.93897 24.0615 7.00122 24.2182C7.06347 24.3742 7.36047 24.609 7.67322 24.7807C7.98597 24.9525 8.47047 25.4212 8.75172 25.8742C9.06522 26.3797 9.12672 26.6715 9.39222 27.249C9.57897 27.6555 10.218 28.1632 10.6732 28.4362C11.064 28.671 11.8447 28.8045 12.6892 28.8427C12.981 28.8562 13.6702 28.7707 14.2515 28.6882V31.5007C14.2515 31.98 13.8127 32.3445 13.3582 32.2605C14.817 32.751 16.3747 33 18 33C19.6245 33 21.1822 32.751 22.6425 32.262C22.1887 32.3452 21.75 31.9807 21.75 31.5015V27.1485C21.75 26.1517 21.3547 25.251 20.7202 24.5797C25.1047 24.0532 27.558 22.0537 27.558 17.5005ZM8.42922 24.5452C8.31372 24.486 8.25147 24.3765 8.29047 24.2992C8.32947 24.222 8.45547 24.2077 8.57097 24.267C8.68647 24.3262 8.74872 24.4357 8.70972 24.513C8.67072 24.5902 8.54472 24.6045 8.42922 24.5452ZM9.33822 25.1115C9.27747 25.1775 9.14697 25.1565 9.04647 25.065C8.94597 24.9735 8.91372 24.8452 8.97447 24.7792C9.03522 24.7132 9.16572 24.7342 9.26622 24.8257C9.36672 24.9172 9.39897 25.0455 9.33822 25.1115ZM9.90372 26.049C9.82722 26.103 9.69747 26.0527 9.61422 25.9365C9.53097 25.8202 9.52572 25.6815 9.60222 25.6275C9.67872 25.5735 9.80847 25.6237 9.89172 25.74C9.97422 25.8562 9.98022 25.995 9.90372 26.049ZM10.716 26.7547C10.6642 26.8387 10.5172 26.8425 10.3882 26.7637C10.2592 26.685 10.1962 26.553 10.248 26.469C10.2997 26.385 10.4467 26.3812 10.5757 26.46C10.7047 26.5387 10.7677 26.6707 10.716 26.7547ZM11.484 27.4455C11.3242 27.426 11.2057 27.3262 11.2192 27.2227C11.232 27.1192 11.3722 27.0517 11.5312 27.0712C11.691 27.0907 11.8095 27.1905 11.796 27.294C11.7832 27.3967 11.6437 27.465 11.484 27.4455ZM12.7222 27.6247C12.552 27.615 12.4192 27.5175 12.426 27.408C12.4327 27.2985 12.576 27.2167 12.7462 27.2265C12.9165 27.2362 13.0492 27.3337 13.0425 27.4432C13.0357 27.5535 12.8925 27.6345 12.7222 27.6247ZM13.8907 27.5077C13.7092 27.5077 13.5622 27.4132 13.5622 27.297C13.5622 27.1807 13.7092 27.0862 13.8907 27.0862C14.0722 27.0862 14.2192 27.1807 14.2192 27.297C14.2192 27.4132 14.0715 27.5077 13.8907 27.5077Z" fill="white"/>
<defs>
<linearGradient id="paint0_linear_106_53" x1="3" y1="17.631" x2="33" y2="17.631" gradientUnits="userSpaceOnUse">
<stop stop-color="#4C4C4C"/>
<stop offset="1" stop-color="#343434"/>
</linearGradient>
</defs>
</svg>
