<svg width="556" height="649" viewBox="0 0 556 649" fill="none" xmlns="http://www.w3.org/2000/svg">
<path d="M0 4.99999C0 2.23856 2.23858 0 5 0H556V649H4.99999C2.23857 649 0 646.761 0 644V4.99999Z" fill="url(#paint0_linear_106_129)"/>
<path d="M67.0786 55.5356V68.7773C66.5584 69.4046 65.7552 70.0854 64.6689 70.8198C63.5827 71.5389 62.1828 72.1585 60.4692 72.6787C58.7557 73.1989 56.6826 73.459 54.25 73.459C52.0928 73.459 50.1268 73.1071 48.3521 72.4033C46.5773 71.6842 45.0474 70.6362 43.7622 69.2593C42.4924 67.8823 41.5132 66.1994 40.8247 64.2104C40.1362 62.2062 39.792 59.9189 39.792 57.3486V55.2603C39.792 52.6899 40.1209 50.4027 40.7788 48.3984C41.452 46.3942 42.4082 44.7036 43.6475 43.3267C44.8867 41.9497 46.3631 40.9017 48.0767 40.1826C49.7902 39.4635 51.695 39.104 53.791 39.104C56.6979 39.104 59.0846 39.5783 60.9512 40.5269C62.8177 41.4601 64.2406 42.7606 65.2197 44.4282C66.2142 46.0806 66.8262 47.9777 67.0557 50.1196H60.3774C60.2091 48.9875 59.8879 48.0007 59.4136 47.1592C58.9393 46.3177 58.2585 45.6598 57.3711 45.1855C56.499 44.7113 55.3669 44.4741 53.9746 44.4741C52.8271 44.4741 51.8021 44.7113 50.8994 45.1855C50.012 45.6445 49.2624 46.3254 48.6504 47.228C48.0384 48.1307 47.5718 49.2476 47.2505 50.5786C46.9292 51.9097 46.7686 53.4549 46.7686 55.2144V57.3486C46.7686 59.0928 46.9368 60.638 47.2734 61.9844C47.61 63.3154 48.1073 64.4399 48.7651 65.3579C49.4383 66.2606 50.2645 66.9414 51.2437 67.4004C52.2228 67.8594 53.3626 68.0889 54.6631 68.0889C55.7493 68.0889 56.652 67.9971 57.3711 67.8135C58.1055 67.6299 58.6945 67.408 59.1382 67.1479C59.5972 66.8726 59.9491 66.6125 60.1938 66.3677V60.4468H53.9058V55.5356H67.0786ZM78.8286 53.585V73H72.2192V48.1689H78.4385L78.8286 53.585ZM86.3101 48.0083L86.1953 54.1357C85.874 54.0898 85.4839 54.0516 85.0249 54.021C84.5812 53.9751 84.1758 53.9521 83.8086 53.9521C82.8753 53.9521 82.0645 54.0745 81.376 54.3193C80.7028 54.5488 80.1367 54.8931 79.6777 55.3521C79.234 55.811 78.8975 56.3695 78.668 57.0273C78.4538 57.6852 78.3314 58.4349 78.3008 59.2764L76.9697 58.8633C76.9697 57.2568 77.1304 55.7804 77.4517 54.4341C77.7729 53.0724 78.2396 51.8867 78.8516 50.877C79.4788 49.8672 80.2438 49.0869 81.1465 48.5361C82.0492 47.9854 83.0819 47.71 84.2446 47.71C84.6118 47.71 84.9867 47.7406 85.3691 47.8018C85.7516 47.8477 86.0653 47.9165 86.3101 48.0083ZM102.053 67.4004V56.3389C102.053 55.5433 101.923 54.8625 101.663 54.2964C101.403 53.715 100.998 53.2637 100.447 52.9424C99.9113 52.6211 99.2152 52.4604 98.3584 52.4604C97.624 52.4604 96.9891 52.5905 96.4536 52.8506C95.9181 53.0954 95.505 53.4549 95.2144 53.9292C94.9237 54.3882 94.7783 54.9313 94.7783 55.5586H88.1689C88.1689 54.5029 88.4137 53.5008 88.9033 52.5522C89.3929 51.6037 90.1043 50.7699 91.0376 50.0508C91.9709 49.3164 93.0801 48.7427 94.3652 48.3296C95.6657 47.9165 97.1191 47.71 98.7256 47.71C100.653 47.71 102.367 48.0312 103.866 48.6738C105.366 49.3164 106.544 50.2803 107.4 51.5654C108.272 52.8506 108.708 54.457 108.708 56.3848V67.0103C108.708 68.3719 108.793 69.4888 108.961 70.3608C109.129 71.2176 109.374 71.9673 109.695 72.6099V73H103.017C102.696 72.3268 102.451 71.4854 102.283 70.4756C102.13 69.4505 102.053 68.4255 102.053 67.4004ZM102.925 57.8765L102.971 61.6172H99.2764C98.4043 61.6172 97.647 61.7166 97.0044 61.9155C96.3618 62.1144 95.834 62.3975 95.4209 62.7646C95.0078 63.1165 94.7018 63.5296 94.5029 64.0039C94.3193 64.4782 94.2275 64.9984 94.2275 65.5645C94.2275 66.1305 94.3576 66.6431 94.6177 67.1021C94.8778 67.5457 95.2526 67.8976 95.7422 68.1577C96.2318 68.4025 96.8055 68.5249 97.4634 68.5249C98.4578 68.5249 99.3223 68.326 100.057 67.9282C100.791 67.5304 101.357 67.0409 101.755 66.4595C102.168 65.8781 102.382 65.3273 102.397 64.8071L104.142 67.6069C103.897 68.2342 103.56 68.8844 103.132 69.5576C102.719 70.2308 102.191 70.8657 101.548 71.4624C100.906 72.0438 100.133 72.5257 99.2305 72.9082C98.3278 73.2754 97.2568 73.459 96.0176 73.459C94.4417 73.459 93.0112 73.1453 91.7261 72.5181C90.4562 71.8755 89.4465 70.9958 88.6968 69.8789C87.9624 68.7467 87.5952 67.4616 87.5952 66.0234C87.5952 64.723 87.84 63.5679 88.3296 62.5581C88.8192 61.5483 89.5382 60.6992 90.4868 60.0107C91.4507 59.307 92.6517 58.7791 94.0898 58.4272C95.528 58.0601 97.1956 57.8765 99.0928 57.8765H102.925ZM128.468 67.584V37.75H135.123V73H129.133L128.468 67.584ZM112.771 60.8828V60.4009C112.771 58.5037 112.985 56.7826 113.413 55.2373C113.841 53.6768 114.469 52.3381 115.295 51.2212C116.121 50.1043 117.139 49.2399 118.347 48.6279C119.556 48.016 120.933 47.71 122.478 47.71C123.931 47.71 125.201 48.016 126.288 48.6279C127.389 49.2399 128.322 50.112 129.087 51.2441C129.868 52.361 130.495 53.6844 130.969 55.2144C131.444 56.729 131.788 58.389 132.002 60.1943V61.25C131.788 62.9788 131.444 64.5853 130.969 66.0693C130.495 67.5534 129.868 68.8538 129.087 69.9707C128.322 71.0723 127.389 71.929 126.288 72.541C125.186 73.153 123.901 73.459 122.432 73.459C120.887 73.459 119.51 73.1453 118.301 72.5181C117.108 71.8908 116.098 71.0111 115.272 69.8789C114.461 68.7467 113.841 67.4157 113.413 65.8857C112.985 64.3558 112.771 62.6882 112.771 60.8828ZM119.38 60.4009V60.8828C119.38 61.9079 119.456 62.8641 119.609 63.7515C119.778 64.6388 120.045 65.4268 120.413 66.1152C120.795 66.7884 121.285 67.3162 121.881 67.6987C122.493 68.0659 123.235 68.2495 124.107 68.2495C125.24 68.2495 126.173 67.9971 126.907 67.4922C127.642 66.972 128.2 66.2606 128.583 65.3579C128.98 64.4552 129.21 63.4149 129.271 62.2368V59.2305C129.225 58.2666 129.087 57.4022 128.858 56.6372C128.644 55.8569 128.322 55.1914 127.894 54.6406C127.481 54.0898 126.961 53.6615 126.333 53.3555C125.722 53.0495 124.995 52.8965 124.153 52.8965C123.297 52.8965 122.562 53.0954 121.95 53.4932C121.338 53.8757 120.841 54.4035 120.458 55.0767C120.091 55.7498 119.816 56.5454 119.632 57.4634C119.464 58.366 119.38 59.3452 119.38 60.4009ZM151.715 73.459C149.788 73.459 148.059 73.153 146.529 72.541C144.999 71.9137 143.698 71.0493 142.627 69.9478C141.572 68.8462 140.761 67.5687 140.195 66.1152C139.629 64.6465 139.346 63.0859 139.346 61.4336V60.5156C139.346 58.6338 139.613 56.9126 140.149 55.3521C140.684 53.7915 141.449 52.4375 142.444 51.29C143.454 50.1426 144.678 49.2629 146.116 48.6509C147.554 48.0236 149.176 47.71 150.981 47.71C152.74 47.71 154.301 48.0007 155.663 48.582C157.024 49.1634 158.164 49.9896 159.082 51.0605C160.015 52.1315 160.719 53.4167 161.193 54.916C161.668 56.4001 161.905 58.0524 161.905 59.873V62.627H142.168V58.2207H155.41V57.7158C155.41 56.7979 155.242 55.9793 154.905 55.2603C154.584 54.5259 154.094 53.9445 153.437 53.5161C152.779 53.0877 151.937 52.8735 150.912 52.8735C150.04 52.8735 149.29 53.0648 148.663 53.4473C148.036 53.8298 147.523 54.3652 147.125 55.0537C146.743 55.7422 146.452 56.5531 146.253 57.4863C146.07 58.4043 145.978 59.4141 145.978 60.5156V61.4336C145.978 62.4281 146.116 63.346 146.391 64.1875C146.682 65.029 147.087 65.7557 147.607 66.3677C148.143 66.9797 148.785 67.4539 149.535 67.7905C150.3 68.1271 151.165 68.2954 152.128 68.2954C153.322 68.2954 154.431 68.0659 155.456 67.6069C156.496 67.1326 157.391 66.4212 158.141 65.4727L161.354 68.9609C160.834 69.7106 160.122 70.4297 159.22 71.1182C158.332 71.8066 157.261 72.3727 156.007 72.8164C154.752 73.2448 153.322 73.459 151.715 73.459ZM179.094 66.1382C179.094 65.6639 178.956 65.2355 178.681 64.853C178.405 64.4705 177.893 64.1187 177.143 63.7974C176.409 63.4608 175.345 63.1548 173.953 62.8794C172.699 62.604 171.528 62.2598 170.442 61.8467C169.371 61.4183 168.438 60.9058 167.642 60.3091C166.862 59.7124 166.25 59.0086 165.806 58.1978C165.362 57.3716 165.141 56.4307 165.141 55.375C165.141 54.3346 165.362 53.3555 165.806 52.4375C166.265 51.5195 166.915 50.7087 167.757 50.0049C168.614 49.2858 169.654 48.7274 170.878 48.3296C172.117 47.9165 173.509 47.71 175.055 47.71C177.212 47.71 179.063 48.0542 180.608 48.7427C182.169 49.4312 183.362 50.3797 184.188 51.5884C185.03 52.7817 185.451 54.1434 185.451 55.6733H178.841C178.841 55.0308 178.704 54.457 178.428 53.9521C178.168 53.432 177.755 53.0265 177.189 52.7358C176.638 52.4299 175.919 52.2769 175.032 52.2769C174.297 52.2769 173.662 52.4069 173.127 52.667C172.591 52.9118 172.178 53.2484 171.888 53.6768C171.612 54.0898 171.475 54.5488 171.475 55.0537C171.475 55.4362 171.551 55.7804 171.704 56.0864C171.872 56.3771 172.14 56.6449 172.507 56.8896C172.875 57.1344 173.349 57.3639 173.93 57.5781C174.527 57.777 175.261 57.9606 176.133 58.1289C177.923 58.4961 179.522 58.978 180.93 59.5747C182.337 60.1561 183.454 60.9517 184.28 61.9614C185.106 62.9559 185.52 64.264 185.52 65.8857C185.52 66.9873 185.275 67.9971 184.785 68.915C184.296 69.833 183.592 70.6362 182.674 71.3247C181.756 71.9979 180.654 72.5257 179.369 72.9082C178.099 73.2754 176.669 73.459 175.078 73.459C172.767 73.459 170.809 73.0459 169.203 72.2197C167.611 71.3936 166.403 70.3455 165.577 69.0757C164.766 67.7905 164.36 66.4748 164.36 65.1284H170.625C170.656 66.0311 170.886 66.7578 171.314 67.3086C171.758 67.8594 172.316 68.2572 172.989 68.502C173.678 68.7467 174.42 68.8691 175.215 68.8691C176.072 68.8691 176.784 68.7544 177.35 68.5249C177.916 68.2801 178.344 67.9588 178.635 67.561C178.941 67.1479 179.094 66.6737 179.094 66.1382ZM214.55 56.0635V61.25H201.584V56.0635H214.55ZM249.571 64.2563C249.571 63.6597 249.479 63.1242 249.295 62.6499C249.127 62.1603 248.806 61.7166 248.332 61.3188C247.857 60.9058 247.192 60.5003 246.335 60.1025C245.478 59.7048 244.369 59.2917 243.007 58.8633C241.493 58.3737 240.055 57.8229 238.693 57.2109C237.347 56.599 236.153 55.8875 235.113 55.0767C234.088 54.2505 233.277 53.2943 232.68 52.208C232.099 51.1217 231.808 49.8595 231.808 48.4214C231.808 47.0291 232.114 45.7669 232.726 44.6348C233.338 43.4873 234.195 42.5081 235.296 41.6973C236.398 40.8711 237.698 40.2362 239.198 39.7925C240.712 39.3488 242.372 39.127 244.178 39.127C246.641 39.127 248.791 39.5706 250.626 40.458C252.462 41.3454 253.885 42.5617 254.895 44.1069C255.92 45.6522 256.433 47.4193 256.433 49.4082H249.594C249.594 48.429 249.387 47.5723 248.974 46.8379C248.576 46.0882 247.964 45.4992 247.138 45.0708C246.327 44.6424 245.302 44.4282 244.063 44.4282C242.87 44.4282 241.875 44.6118 241.08 44.979C240.284 45.3309 239.687 45.8128 239.29 46.4248C238.892 47.0215 238.693 47.6947 238.693 48.4443C238.693 49.0104 238.831 49.5229 239.106 49.9819C239.397 50.4409 239.825 50.8693 240.391 51.2671C240.957 51.6649 241.653 52.0397 242.479 52.3916C243.306 52.7435 244.262 53.0877 245.348 53.4243C247.169 53.9751 248.768 54.5947 250.145 55.2832C251.537 55.9717 252.7 56.7443 253.633 57.6011C254.566 58.4578 255.27 59.4294 255.744 60.5156C256.218 61.6019 256.456 62.8335 256.456 64.2104C256.456 65.6639 256.173 66.9644 255.606 68.1118C255.04 69.2593 254.222 70.2308 253.151 71.0264C252.08 71.8219 250.802 72.4263 249.318 72.8394C247.834 73.2524 246.174 73.459 244.338 73.459C242.686 73.459 241.057 73.2448 239.45 72.8164C237.844 72.3727 236.383 71.7072 235.067 70.8198C233.766 69.9325 232.726 68.8003 231.946 67.4233C231.166 66.0464 230.775 64.417 230.775 62.5352H237.683C237.683 63.5755 237.844 64.4552 238.165 65.1743C238.486 65.8934 238.938 66.4748 239.519 66.9185C240.116 67.3621 240.819 67.6834 241.63 67.8823C242.457 68.0812 243.359 68.1807 244.338 68.1807C245.532 68.1807 246.511 68.0124 247.276 67.6758C248.056 67.3392 248.63 66.8726 248.997 66.2759C249.38 65.6792 249.571 65.006 249.571 64.2563ZM272.887 48.1689V52.8506H258.429V48.1689H272.887ZM262.009 42.0415H268.619V65.5186C268.619 66.2376 268.71 66.7884 268.894 67.1709C269.093 67.5534 269.384 67.8211 269.766 67.9741C270.149 68.1118 270.631 68.1807 271.212 68.1807C271.625 68.1807 271.992 68.1654 272.313 68.1348C272.65 68.0889 272.933 68.043 273.163 67.9971L273.186 72.8623C272.619 73.0459 272.007 73.1912 271.35 73.2983C270.692 73.4054 269.965 73.459 269.169 73.459C267.716 73.459 266.446 73.2218 265.36 72.7476C264.289 72.258 263.463 71.4777 262.881 70.4067C262.3 69.3358 262.009 67.9282 262.009 66.1841V42.0415ZM290.053 67.4004V56.3389C290.053 55.5433 289.923 54.8625 289.663 54.2964C289.403 53.715 288.998 53.2637 288.447 52.9424C287.911 52.6211 287.215 52.4604 286.358 52.4604C285.624 52.4604 284.989 52.5905 284.454 52.8506C283.918 53.0954 283.505 53.4549 283.214 53.9292C282.924 54.3882 282.778 54.9313 282.778 55.5586H276.169C276.169 54.5029 276.414 53.5008 276.903 52.5522C277.393 51.6037 278.104 50.7699 279.038 50.0508C279.971 49.3164 281.08 48.7427 282.365 48.3296C283.666 47.9165 285.119 47.71 286.726 47.71C288.653 47.71 290.367 48.0312 291.866 48.6738C293.366 49.3164 294.544 50.2803 295.4 51.5654C296.272 52.8506 296.708 54.457 296.708 56.3848V67.0103C296.708 68.3719 296.793 69.4888 296.961 70.3608C297.129 71.2176 297.374 71.9673 297.695 72.6099V73H291.017C290.696 72.3268 290.451 71.4854 290.283 70.4756C290.13 69.4505 290.053 68.4255 290.053 67.4004ZM290.925 57.8765L290.971 61.6172H287.276C286.404 61.6172 285.647 61.7166 285.004 61.9155C284.362 62.1144 283.834 62.3975 283.421 62.7646C283.008 63.1165 282.702 63.5296 282.503 64.0039C282.319 64.4782 282.228 64.9984 282.228 65.5645C282.228 66.1305 282.358 66.6431 282.618 67.1021C282.878 67.5457 283.253 67.8976 283.742 68.1577C284.232 68.4025 284.806 68.5249 285.463 68.5249C286.458 68.5249 287.322 68.326 288.057 67.9282C288.791 67.5304 289.357 67.0409 289.755 66.4595C290.168 65.8781 290.382 65.3273 290.397 64.8071L292.142 67.6069C291.897 68.2342 291.56 68.8844 291.132 69.5576C290.719 70.2308 290.191 70.8657 289.548 71.4624C288.906 72.0438 288.133 72.5257 287.23 72.9082C286.328 73.2754 285.257 73.459 284.018 73.459C282.442 73.459 281.011 73.1453 279.726 72.5181C278.456 71.8755 277.446 70.9958 276.697 69.8789C275.962 68.7467 275.595 67.4616 275.595 66.0234C275.595 64.723 275.84 63.5679 276.33 62.5581C276.819 61.5483 277.538 60.6992 278.487 60.0107C279.451 59.307 280.652 58.7791 282.09 58.4272C283.528 58.0601 285.196 57.8765 287.093 57.8765H290.925ZM308.413 53.585V73H301.803V48.1689H308.022L308.413 53.585ZM315.894 48.0083L315.779 54.1357C315.458 54.0898 315.068 54.0516 314.609 54.021C314.165 53.9751 313.76 53.9521 313.393 53.9521C312.459 53.9521 311.648 54.0745 310.96 54.3193C310.287 54.5488 309.721 54.8931 309.262 55.3521C308.818 55.811 308.481 56.3695 308.252 57.0273C308.038 57.6852 307.915 58.4349 307.885 59.2764L306.554 58.8633C306.554 57.2568 306.714 55.7804 307.036 54.4341C307.357 53.0724 307.824 51.8867 308.436 50.877C309.063 49.8672 309.828 49.0869 310.73 48.5361C311.633 47.9854 312.666 47.71 313.829 47.71C314.196 47.71 314.571 47.7406 314.953 47.8018C315.336 47.8477 315.649 47.9165 315.894 48.0083ZM332.326 48.1689V52.8506H317.868V48.1689H332.326ZM321.448 42.0415H328.057V65.5186C328.057 66.2376 328.149 66.7884 328.333 67.1709C328.531 67.5534 328.822 67.8211 329.205 67.9741C329.587 68.1118 330.069 68.1807 330.65 68.1807C331.063 68.1807 331.431 68.1654 331.752 68.1348C332.089 68.0889 332.372 68.043 332.601 67.9971L332.624 72.8623C332.058 73.0459 331.446 73.1912 330.788 73.2983C330.13 73.4054 329.403 73.459 328.608 73.459C327.154 73.459 325.885 73.2218 324.798 72.7476C323.727 72.258 322.901 71.4777 322.32 70.4067C321.738 69.3358 321.448 67.9282 321.448 66.1841V42.0415ZM354.77 37.75V73H348.138V37.75H354.77ZM371.661 73.459C369.733 73.459 368.004 73.153 366.474 72.541C364.944 71.9137 363.644 71.0493 362.573 69.9478C361.517 68.8462 360.706 67.5687 360.14 66.1152C359.574 64.6465 359.291 63.0859 359.291 61.4336V60.5156C359.291 58.6338 359.559 56.9126 360.094 55.3521C360.63 53.7915 361.395 52.4375 362.389 51.29C363.399 50.1426 364.623 49.2629 366.061 48.6509C367.499 48.0236 369.121 47.71 370.926 47.71C372.686 47.71 374.246 48.0007 375.608 48.582C376.97 49.1634 378.109 49.9896 379.027 51.0605C379.961 52.1315 380.664 53.4167 381.139 54.916C381.613 56.4001 381.85 58.0524 381.85 59.873V62.627H362.114V58.2207H375.355V57.7158C375.355 56.7979 375.187 55.9793 374.851 55.2603C374.529 54.5259 374.04 53.9445 373.382 53.5161C372.724 53.0877 371.882 52.8735 370.857 52.8735C369.985 52.8735 369.236 53.0648 368.608 53.4473C367.981 53.8298 367.469 54.3652 367.071 55.0537C366.688 55.7422 366.398 56.5531 366.199 57.4863C366.015 58.4043 365.923 59.4141 365.923 60.5156V61.4336C365.923 62.4281 366.061 63.346 366.336 64.1875C366.627 65.029 367.033 65.7557 367.553 66.3677C368.088 66.9797 368.731 67.4539 369.48 67.7905C370.245 68.1271 371.11 68.2954 372.074 68.2954C373.267 68.2954 374.376 68.0659 375.401 67.6069C376.442 67.1326 377.337 66.4212 378.086 65.4727L381.299 68.9609C380.779 69.7106 380.068 70.4297 379.165 71.1182C378.278 71.8066 377.207 72.3727 375.952 72.8164C374.698 73.2448 373.267 73.459 371.661 73.459ZM399.016 67.4004V56.3389C399.016 55.5433 398.886 54.8625 398.626 54.2964C398.366 53.715 397.96 53.2637 397.41 52.9424C396.874 52.6211 396.178 52.4604 395.321 52.4604C394.587 52.4604 393.952 52.5905 393.417 52.8506C392.881 53.0954 392.468 53.4549 392.177 53.9292C391.887 54.3882 391.741 54.9313 391.741 55.5586H385.132C385.132 54.5029 385.377 53.5008 385.866 52.5522C386.356 51.6037 387.067 50.7699 388 50.0508C388.934 49.3164 390.043 48.7427 391.328 48.3296C392.629 47.9165 394.082 47.71 395.688 47.71C397.616 47.71 399.33 48.0312 400.829 48.6738C402.328 49.3164 403.507 50.2803 404.363 51.5654C405.235 52.8506 405.671 54.457 405.671 56.3848V67.0103C405.671 68.3719 405.756 69.4888 405.924 70.3608C406.092 71.2176 406.337 71.9673 406.658 72.6099V73H399.98C399.659 72.3268 399.414 71.4854 399.246 70.4756C399.093 69.4505 399.016 68.4255 399.016 67.4004ZM399.888 57.8765L399.934 61.6172H396.239C395.367 61.6172 394.61 61.7166 393.967 61.9155C393.325 62.1144 392.797 62.3975 392.384 62.7646C391.971 63.1165 391.665 63.5296 391.466 64.0039C391.282 64.4782 391.19 64.9984 391.19 65.5645C391.19 66.1305 391.32 66.6431 391.581 67.1021C391.841 67.5457 392.215 67.8976 392.705 68.1577C393.195 68.4025 393.768 68.5249 394.426 68.5249C395.421 68.5249 396.285 68.326 397.02 67.9282C397.754 67.5304 398.32 67.0409 398.718 66.4595C399.131 65.8781 399.345 65.3273 399.36 64.8071L401.104 67.6069C400.86 68.2342 400.523 68.8844 400.095 69.5576C399.682 70.2308 399.154 70.8657 398.511 71.4624C397.869 72.0438 397.096 72.5257 396.193 72.9082C395.291 73.2754 394.22 73.459 392.98 73.459C391.405 73.459 389.974 73.1453 388.689 72.5181C387.419 71.8755 386.409 70.9958 385.66 69.8789C384.925 68.7467 384.558 67.4616 384.558 66.0234C384.558 64.723 384.803 63.5679 385.292 62.5581C385.782 61.5483 386.501 60.6992 387.45 60.0107C388.414 59.307 389.615 58.7791 391.053 58.4272C392.491 58.0601 394.159 57.8765 396.056 57.8765H399.888ZM417.375 53.585V73H410.766V48.1689H416.985L417.375 53.585ZM424.857 48.0083L424.742 54.1357C424.421 54.0898 424.031 54.0516 423.572 54.021C423.128 53.9751 422.723 53.9521 422.355 53.9521C421.422 53.9521 420.611 54.0745 419.923 54.3193C419.25 54.5488 418.684 54.8931 418.225 55.3521C417.781 55.811 417.444 56.3695 417.215 57.0273C417.001 57.6852 416.878 58.4349 416.848 59.2764L415.517 58.8633C415.517 57.2568 415.677 55.7804 415.999 54.4341C416.32 53.0724 416.786 51.8867 417.398 50.877C418.026 49.8672 418.791 49.0869 419.693 48.5361C420.596 47.9854 421.629 47.71 422.792 47.71C423.159 47.71 423.534 47.7406 423.916 47.8018C424.299 47.8477 424.612 47.9165 424.857 48.0083ZM434.45 53.4702V73H427.84V48.1689H434.037L434.45 53.4702ZM433.486 59.7124H431.696C431.696 57.8765 431.933 56.2241 432.407 54.7554C432.882 53.2713 433.547 52.0091 434.404 50.9688C435.261 49.9131 436.278 49.1099 437.456 48.5591C438.649 47.993 439.98 47.71 441.449 47.71C442.612 47.71 443.675 47.8783 444.639 48.2148C445.603 48.5514 446.429 49.0869 447.118 49.8213C447.821 50.5557 448.357 51.5272 448.724 52.7358C449.107 53.9445 449.298 55.4209 449.298 57.165V73H442.643V57.1421C442.643 56.0405 442.49 55.1838 442.184 54.5718C441.878 53.9598 441.426 53.5314 440.83 53.2866C440.248 53.0265 439.529 52.8965 438.672 52.8965C437.785 52.8965 437.012 53.0724 436.354 53.4243C435.712 53.7762 435.176 54.2658 434.748 54.8931C434.335 55.505 434.021 56.2241 433.807 57.0503C433.593 57.8765 433.486 58.7638 433.486 59.7124ZM461.3 48.1689V73H454.668V48.1689H461.3ZM454.255 41.6973C454.255 40.7334 454.591 39.9378 455.265 39.3105C455.938 38.6833 456.84 38.3696 457.973 38.3696C459.09 38.3696 459.985 38.6833 460.658 39.3105C461.346 39.9378 461.69 40.7334 461.69 41.6973C461.69 42.6611 461.346 43.4567 460.658 44.084C459.985 44.7113 459.09 45.0249 457.973 45.0249C456.84 45.0249 455.938 44.7113 455.265 44.084C454.591 43.4567 454.255 42.6611 454.255 41.6973ZM473.234 53.4702V73H466.625V48.1689H472.821L473.234 53.4702ZM472.27 59.7124H470.48C470.48 57.8765 470.717 56.2241 471.191 54.7554C471.666 53.2713 472.331 52.0091 473.188 50.9688C474.045 49.9131 475.062 49.1099 476.24 48.5591C477.434 47.993 478.765 47.71 480.233 47.71C481.396 47.71 482.459 47.8783 483.423 48.2148C484.387 48.5514 485.213 49.0869 485.902 49.8213C486.606 50.5557 487.141 51.5272 487.508 52.7358C487.891 53.9445 488.082 55.4209 488.082 57.165V73H481.427V57.1421C481.427 56.0405 481.274 55.1838 480.968 54.5718C480.662 53.9598 480.21 53.5314 479.614 53.2866C479.032 53.0265 478.313 52.8965 477.457 52.8965C476.569 52.8965 475.797 53.0724 475.139 53.4243C474.496 53.7762 473.961 54.2658 473.532 54.8931C473.119 55.505 472.806 56.2241 472.591 57.0503C472.377 57.8765 472.27 58.7638 472.27 59.7124ZM508.828 48.1689H514.818V72.1738C514.818 74.4382 514.313 76.3582 513.303 77.9341C512.309 79.5252 510.917 80.7262 509.126 81.5371C507.336 82.3633 505.256 82.7764 502.884 82.7764C501.844 82.7764 500.742 82.6387 499.58 82.3633C498.432 82.0879 497.331 81.6595 496.275 81.0781C495.235 80.4967 494.362 79.7624 493.659 78.875L496.573 74.9736C497.338 75.861 498.226 76.5495 499.235 77.0391C500.245 77.5439 501.362 77.7964 502.586 77.7964C503.779 77.7964 504.789 77.5745 505.615 77.1309C506.441 76.7025 507.076 76.0675 507.52 75.2261C507.964 74.3999 508.186 73.3978 508.186 72.2197V53.9062L508.828 48.1689ZM492.121 60.8828V60.4009C492.121 58.5037 492.351 56.7826 492.81 55.2373C493.284 53.6768 493.949 52.3381 494.806 51.2212C495.678 50.1043 496.734 49.2399 497.973 48.6279C499.212 48.016 500.612 47.71 502.173 47.71C503.825 47.71 505.21 48.016 506.327 48.6279C507.444 49.2399 508.361 50.112 509.081 51.2441C509.8 52.361 510.358 53.6844 510.756 55.2144C511.169 56.729 511.49 58.389 511.72 60.1943V61.25C511.49 62.9788 511.146 64.5853 510.687 66.0693C510.228 67.5534 509.624 68.8538 508.874 69.9707C508.124 71.0723 507.191 71.929 506.074 72.541C504.973 73.153 503.657 73.459 502.127 73.459C500.597 73.459 499.212 73.1453 497.973 72.5181C496.749 71.8908 495.701 71.0111 494.829 69.8789C493.957 68.7467 493.284 67.4157 492.81 65.8857C492.351 64.3558 492.121 62.6882 492.121 60.8828ZM498.73 60.4009V60.8828C498.73 61.9079 498.83 62.8641 499.029 63.7515C499.228 64.6388 499.534 65.4268 499.947 66.1152C500.375 66.7884 500.903 67.3162 501.53 67.6987C502.173 68.0659 502.93 68.2495 503.802 68.2495C505.011 68.2495 505.998 67.9971 506.763 67.4922C507.528 66.972 508.101 66.2606 508.484 65.3579C508.866 64.4552 509.088 63.4149 509.149 62.2368V59.2305C509.119 58.2666 508.989 57.4022 508.759 56.6372C508.53 55.8569 508.208 55.1914 507.795 54.6406C507.382 54.0898 506.847 53.6615 506.189 53.3555C505.531 53.0495 504.751 52.8965 503.848 52.8965C502.976 52.8965 502.219 53.0954 501.576 53.4932C500.949 53.8757 500.421 54.4035 499.993 55.0767C499.58 55.7498 499.266 56.5454 499.052 57.4634C498.838 58.366 498.73 59.3452 498.73 60.4009ZM190.063 108.47V128H183.454V103.169H189.65L190.063 108.47ZM189.1 114.712H187.31C187.31 112.876 187.547 111.224 188.021 109.755C188.495 108.271 189.161 107.009 190.018 105.969C190.874 104.913 191.892 104.11 193.07 103.559C194.263 102.993 195.594 102.71 197.063 102.71C198.226 102.71 199.289 102.878 200.253 103.215C201.217 103.551 202.043 104.087 202.731 104.821C203.435 105.556 203.971 106.527 204.338 107.736C204.72 108.944 204.912 110.421 204.912 112.165V128H198.256V112.142C198.256 111.041 198.103 110.184 197.797 109.572C197.491 108.96 197.04 108.531 196.443 108.287C195.862 108.027 195.143 107.896 194.286 107.896C193.399 107.896 192.626 108.072 191.968 108.424C191.326 108.776 190.79 109.266 190.362 109.893C189.949 110.505 189.635 111.224 189.421 112.05C189.207 112.876 189.1 113.764 189.1 114.712ZM208.882 115.837V115.355C208.882 113.534 209.142 111.859 209.662 110.329C210.182 108.784 210.94 107.445 211.934 106.313C212.929 105.181 214.153 104.301 215.606 103.674C217.059 103.031 218.727 102.71 220.609 102.71C222.491 102.71 224.166 103.031 225.635 103.674C227.104 104.301 228.335 105.181 229.33 106.313C230.339 107.445 231.104 108.784 231.625 110.329C232.145 111.859 232.405 113.534 232.405 115.355V115.837C232.405 117.642 232.145 119.318 231.625 120.863C231.104 122.393 230.339 123.731 229.33 124.879C228.335 126.011 227.111 126.891 225.658 127.518C224.204 128.145 222.537 128.459 220.655 128.459C218.773 128.459 217.098 128.145 215.629 127.518C214.175 126.891 212.944 126.011 211.934 124.879C210.94 123.731 210.182 122.393 209.662 120.863C209.142 119.318 208.882 117.642 208.882 115.837ZM215.491 115.355V115.837C215.491 116.877 215.583 117.849 215.767 118.751C215.95 119.654 216.241 120.45 216.639 121.138C217.052 121.811 217.587 122.339 218.245 122.722C218.903 123.104 219.706 123.295 220.655 123.295C221.573 123.295 222.361 123.104 223.019 122.722C223.676 122.339 224.204 121.811 224.602 121.138C225 120.45 225.291 119.654 225.474 118.751C225.673 117.849 225.772 116.877 225.772 115.837V115.355C225.772 114.345 225.673 113.397 225.474 112.509C225.291 111.607 224.992 110.811 224.579 110.123C224.181 109.419 223.653 108.868 222.996 108.47C222.338 108.072 221.542 107.874 220.609 107.874C219.676 107.874 218.88 108.072 218.222 108.47C217.58 108.868 217.052 109.419 216.639 110.123C216.241 110.811 215.95 111.607 215.767 112.509C215.583 113.397 215.491 114.345 215.491 115.355ZM243.558 121.574L248.722 103.169H252.921L251.567 110.398L246.404 128H242.893L243.558 121.574ZM240.942 103.169L244.637 121.551L244.981 128H240.85L234.562 103.169H240.942ZM257.649 121.253L261.252 103.169H267.655L261.367 128H257.259L257.649 121.253ZM253.495 103.169L258.636 121.437L259.347 128H255.813L250.649 110.421L249.341 103.169H253.495ZM289.135 92.75V128H282.526V92.75H289.135ZM288.194 114.712H286.381C286.397 112.984 286.626 111.392 287.07 109.939C287.514 108.47 288.148 107.2 288.975 106.129C289.801 105.043 290.788 104.202 291.935 103.605C293.098 103.008 294.383 102.71 295.791 102.71C297.014 102.71 298.124 102.886 299.118 103.238C300.128 103.574 300.992 104.125 301.711 104.89C302.446 105.64 303.012 106.627 303.41 107.851C303.807 109.075 304.006 110.559 304.006 112.303V128H297.351V112.257C297.351 111.155 297.19 110.291 296.869 109.664C296.563 109.021 296.112 108.57 295.515 108.31C294.934 108.034 294.215 107.896 293.358 107.896C292.409 107.896 291.598 108.072 290.925 108.424C290.267 108.776 289.74 109.266 289.342 109.893C288.944 110.505 288.653 111.224 288.47 112.05C288.286 112.876 288.194 113.764 288.194 114.712ZM320.461 128.459C318.533 128.459 316.804 128.153 315.274 127.541C313.744 126.914 312.444 126.049 311.373 124.948C310.317 123.846 309.507 122.569 308.94 121.115C308.374 119.646 308.091 118.086 308.091 116.434V115.516C308.091 113.634 308.359 111.913 308.895 110.352C309.43 108.792 310.195 107.438 311.189 106.29C312.199 105.143 313.423 104.263 314.861 103.651C316.299 103.024 317.921 102.71 319.727 102.71C321.486 102.71 323.047 103.001 324.408 103.582C325.77 104.163 326.91 104.99 327.828 106.061C328.761 107.132 329.465 108.417 329.939 109.916C330.413 111.4 330.65 113.052 330.65 114.873V117.627H310.914V113.221H324.156V112.716C324.156 111.798 323.987 110.979 323.651 110.26C323.33 109.526 322.84 108.944 322.182 108.516C321.524 108.088 320.683 107.874 319.658 107.874C318.786 107.874 318.036 108.065 317.409 108.447C316.781 108.83 316.269 109.365 315.871 110.054C315.489 110.742 315.198 111.553 314.999 112.486C314.815 113.404 314.724 114.414 314.724 115.516V116.434C314.724 117.428 314.861 118.346 315.137 119.188C315.427 120.029 315.833 120.756 316.353 121.368C316.889 121.98 317.531 122.454 318.281 122.791C319.046 123.127 319.91 123.295 320.874 123.295C322.067 123.295 323.177 123.066 324.202 122.607C325.242 122.133 326.137 121.421 326.887 120.473L330.1 123.961C329.579 124.711 328.868 125.43 327.965 126.118C327.078 126.807 326.007 127.373 324.752 127.816C323.498 128.245 322.067 128.459 320.461 128.459ZM341.023 108.585V128H334.414V103.169H340.633L341.023 108.585ZM348.505 103.008L348.39 109.136C348.069 109.09 347.679 109.052 347.22 109.021C346.776 108.975 346.371 108.952 346.003 108.952C345.07 108.952 344.259 109.075 343.571 109.319C342.898 109.549 342.332 109.893 341.873 110.352C341.429 110.811 341.092 111.369 340.863 112.027C340.649 112.685 340.526 113.435 340.496 114.276L339.165 113.863C339.165 112.257 339.325 110.78 339.646 109.434C339.968 108.072 340.434 106.887 341.046 105.877C341.674 104.867 342.439 104.087 343.341 103.536C344.244 102.985 345.277 102.71 346.439 102.71C346.807 102.71 347.181 102.741 347.564 102.802C347.946 102.848 348.26 102.917 348.505 103.008ZM362.596 128.459C360.668 128.459 358.939 128.153 357.409 127.541C355.879 126.914 354.579 126.049 353.508 124.948C352.452 123.846 351.641 122.569 351.075 121.115C350.509 119.646 350.226 118.086 350.226 116.434V115.516C350.226 113.634 350.494 111.913 351.029 110.352C351.565 108.792 352.33 107.438 353.324 106.29C354.334 105.143 355.558 104.263 356.996 103.651C358.434 103.024 360.056 102.71 361.861 102.71C363.621 102.71 365.181 103.001 366.543 103.582C367.905 104.163 369.044 104.99 369.962 106.061C370.896 107.132 371.599 108.417 372.074 109.916C372.548 111.4 372.785 113.052 372.785 114.873V117.627H353.049V113.221H366.291V112.716C366.291 111.798 366.122 110.979 365.786 110.26C365.464 109.526 364.975 108.944 364.317 108.516C363.659 108.088 362.818 107.874 361.792 107.874C360.92 107.874 360.171 108.065 359.543 108.447C358.916 108.83 358.404 109.365 358.006 110.054C357.623 110.742 357.333 111.553 357.134 112.486C356.95 113.404 356.858 114.414 356.858 115.516V116.434C356.858 117.428 356.996 118.346 357.271 119.188C357.562 120.029 357.968 120.756 358.488 121.368C359.023 121.98 359.666 122.454 360.416 122.791C361.181 123.127 362.045 123.295 363.009 123.295C364.202 123.295 365.311 123.066 366.336 122.607C367.377 122.133 368.272 121.421 369.021 120.473L372.234 123.961C371.714 124.711 371.003 125.43 370.1 126.118C369.213 126.807 368.142 127.373 366.887 127.816C365.633 128.245 364.202 128.459 362.596 128.459Z" fill="white"/>
<circle cx="278" cy="393" r="150" fill="url(#paint1_linear_106_129)"/>
<circle cx="354.5" cy="361.5" r="4" stroke="white" stroke-opacity="0.7" stroke-width="3"/>
<circle cx="263.5" cy="376.5" r="4" stroke="white" stroke-opacity="0.7" stroke-width="3"/>
<circle cx="192.5" cy="344.5" r="4" stroke="white" stroke-opacity="0.7" stroke-width="3"/>
<circle cx="220.5" cy="299.5" r="4" stroke="white" stroke-opacity="0.7" stroke-width="3"/>
<circle cx="295.5" cy="271.5" r="4" stroke="white" stroke-opacity="0.7" stroke-width="3"/>
<circle cx="360.5" cy="310.5" r="4" stroke="white" stroke-opacity="0.7" stroke-width="3"/>
<circle cx="407.5" cy="381.5" r="4" stroke="white" stroke-opacity="0.7" stroke-width="3"/>
<circle cx="162.5" cy="376.5" r="4" stroke="white" stroke-opacity="0.7" stroke-width="3"/>
<circle cx="239.5" cy="339.5" r="4" stroke="white" stroke-opacity="0.7" stroke-width="3"/>
<circle cx="290.5" cy="327.5" r="4" stroke="white" stroke-opacity="0.7" stroke-width="3"/>
<path d="M192 343.5C150.8 337.9 155.167 362.833 162.5 376C208.639 317.487 322.275 236.415 407.708 380.231M192 343.5C233.2 349.1 256.833 367.5 263.5 376C250.333 352.333 237.4 309.6 291 328M192 343.5C181.333 325 172 290.3 220 299.5C217.5 258.833 229.4 196.3 297 271.5M291 328C358 351 295.5 269.5 297 271.5M291 328C286.5 365 293.1 423.7 355.5 362.5C417.397 301.794 416.19 348.566 407.708 380.231M297 271.5C298.5 273.5 361.5 163.5 361 311M361 311C360.6 429 391.833 406.833 407.5 381C407.57 380.745 407.639 380.488 407.708 380.231M361 311C272.6 233.8 243.5 297.5 240 339" stroke="white" stroke-opacity="0.7" stroke-width="4"/>
<g filter="url(#filter0_f_106_129)">
<path d="M278 573C374.65 573 453 492.411 453 393H103C103 492.411 181.35 573 278 573Z" fill="white" fill-opacity="0.3"/>
</g>
<defs>
<filter id="filter0_f_106_129" x="99" y="389" width="358" height="188" filterUnits="userSpaceOnUse" color-interpolation-filters="sRGB">
<feFlood flood-opacity="0" result="BackgroundImageFix"/>
<feBlend mode="normal" in="SourceGraphic" in2="BackgroundImageFix" result="shape"/>
<feGaussianBlur stdDeviation="2" result="effect1_foregroundBlur_106_129"/>
</filter>
<linearGradient id="paint0_linear_106_129" x1="278" y1="649" x2="278" y2="-8.88421e-06" gradientUnits="userSpaceOnUse">
<stop stop-color="#0000BA"/>
<stop offset="1" stop-color="#0000FF"/>
</linearGradient>
<linearGradient id="paint1_linear_106_129" x1="278" y1="243" x2="278" y2="543" gradientUnits="userSpaceOnUse">
<stop stop-color="#00C2FF"/>
<stop offset="1" stop-color="#FF00C7" stop-opacity="0.46"/>
</linearGradient>
</defs>
</svg>
